<svg id="Layer_1" data-name="Layer 1" xmlns="http://www.w3.org/2000/svg" xmlns:xlink="http://www.w3.org/1999/xlink" viewBox="0 0 603.15 264.66"><defs><style>.cls-1{fill:none;}.cls-2{clip-path:url(#clip-path);}.cls-3{fill:#1d377f;}.cls-4{fill:#ff7b00;}.cls-5{fill:#ffa25c;}.cls-6{fill:#fff;}.cls-7{fill:#ffd9bd;}</style><clipPath id="clip-path" transform="translate(-238.42 -407.21)"><rect class="cls-1" width="1080" height="1080"/></clipPath></defs><g class="cls-2"><path class="cls-3" d="M407,508.84s-42,9.86-83.64,7.87c-13.6-.65-48.92-3-64.73-6.24-8.12-1.68-14.78-7.35-15.9-15.57l-4.17-30.54a9,9,0,0,1,10.82-10.08c15.87,3.28,45.78,8,84.36,7.31,33.87-.6,69.25-5.69,86.4-8.48a6,6,0,0,1,6.46,8.15Z" transform="translate(-238.42 -407.21)"/><path class="cls-3" d="M360,565.25h-8.25l-9.42,26H313l6.1,75.46a5.1,5.1,0,0,0,9.73,1.63l37.77-92.85A7.24,7.24,0,0,0,360,565.25" transform="translate(-238.42 -407.21)"/><path class="cls-3" d="M336.91,584.83H293.5a9.66,9.66,0,0,1-9.67-9.45l-1.58-67.91H365Z" transform="translate(-238.42 -407.21)"/><path class="cls-3" d="M376.27,407.21h-65a21,21,0,1,0,0,41.94h65a21,21,0,1,0,0-41.94m-65,35a14,14,0,1,1,14-14,14,14,0,0,1-14,14m41.94,0a14,14,0,1,1,14-14,14,14,0,0,1-14,14" transform="translate(-238.42 -407.21)"/><path class="cls-4" d="M325.25,428.18a14,14,0,1,1-14-14,14,14,0,0,1,14,14" transform="translate(-238.42 -407.21)"/><path class="cls-4" d="M367.18,428.18a14,14,0,1,1-14-14,14,14,0,0,1,14,14" transform="translate(-238.42 -407.21)"/><polygon class="cls-4" points="55.6 102.91 76.23 82.72 67.47 107.72 55.6 102.91"/><polygon class="cls-5" points="67.47 107.71 76.23 82.71 96.87 102.91 67.47 107.71"/><polygon class="cls-6" points="76.23 123.11 55.6 102.91 67.47 107.71 76.23 123.11"/><polygon class="cls-7" points="96.87 102.91 76.23 123.11 67.47 107.72 96.87 102.91"/><path class="cls-3" d="M539.61,557q0,24.13-18.09,39.74a56.41,56.41,0,0,1-37.77,13.76h-3q-22.55,0-38-17.11a58.15,58.15,0,0,1-15.41-40.19V506.26h30.82v49.43q0,9.57,7.54,16.72t18.82,7.15h-2.23a27.25,27.25,0,0,0,18.29-6.95q8.07-7,8.07-16.92V486.32h30.94v34.49c0,3.15.66,27,0,36.19" transform="translate(-238.42 -407.21)"/><path class="cls-3" d="M642.56,532.11c3.2,5.09,5.88,19.06-6.12,24.3a34.58,34.58,0,0,1-11.28,3c-5,.54-26.11.58-33.46.58l-52.43.26V521s.8,5.34,5,7.31c2.4,1.14,11.84,1,11.84,1H591.7q2.63,0,2.62-4.06a4.28,4.28,0,0,0-1.05-3.15l-49.73-52.31a15.8,15.8,0,0,1-4.15-8.38l-2.2-13.61a12.26,12.26,0,0,1,7.93-13.47l74.51-27,4.59,31.21-48.38,18.49,48.91,54.29c5.5,6.64,14.62,15.65,17.81,20.74" transform="translate(-238.42 -407.21)"/><path class="cls-3" d="M641.42,483.32c8.64-10.15,19.88-14.17,31.51-14.17a38.51,38.51,0,0,1,29.63,13.05q11.94,13,11.93,32.32T703,547.1q-11.55,13.18-30,13.18a40,40,0,0,1-18.1-4.06c-15-6.45-21.2-24.7-23.37-34.14-1.93-8.36.33-27.45,10-38.76" transform="translate(-238.42 -407.21)"/><path class="cls-3" d="M826.83,548s-30.89,7.25-61.53,5.79c-10-.48-36-2.19-47.6-4.59-6-1.24-10.88-5.41-11.7-11.45l-3.07-22.47a6.65,6.65,0,0,1,8-7.41,287,287,0,0,0,62.05,5.38c24.91-.45,50.94-4.19,63.55-6.25a4.39,4.39,0,0,1,4.75,6Z" transform="translate(-238.42 -407.21)"/><path class="cls-3" d="M498,498.78a15.67,15.67,0,1,1-15.67-15.67A15.67,15.67,0,0,1,498,498.78" transform="translate(-238.42 -407.21)"/><polygon class="cls-4" points="414.19 107.84 434.83 87.65 426.07 112.65 414.19 107.84"/><polygon class="cls-5" points="426.07 112.65 434.83 87.65 455.47 107.84 426.07 112.65"/><polygon class="cls-6" points="434.83 128.04 414.2 107.84 426.07 112.65 434.83 128.04"/><polygon class="cls-7" points="455.47 107.84 434.83 128.04 426.07 112.65 455.47 107.84"/><path class="cls-4" d="M766.77,483.32a14.4,14.4,0,1,1-14.4-14.4,14.4,14.4,0,0,1,14.4,14.4" transform="translate(-238.42 -407.21)"/><path class="cls-4" d="M803.93,483.32a14.4,14.4,0,1,1-14.4-14.4,14.4,14.4,0,0,1,14.4,14.4" transform="translate(-238.42 -407.21)"/><path class="cls-3" d="M618.53,614.57h0a6.07,6.07,0,0,1,6.07,6.07v50.48H612.46V620.64a6.07,6.07,0,0,1,6.07-6.07m35.15,24.6q0-6.7-3.52-10.49t-9.8-3.78a14.6,14.6,0,0,0-11.55,5.43,19.86,19.86,0,0,0-4.21,12.89h-3.41q0-10.44,2.93-16.83a19.31,19.31,0,0,1,8.31-9.32,26.25,26.25,0,0,1,12.73-2.93,22,22,0,0,1,11.13,2.66,18,18,0,0,1,7.13,7.51A25.12,25.12,0,0,1,665.93,636v35.15H653.68Zm41.21,0q0-6.7-3.56-10.49t-9.85-3.78a14.35,14.35,0,0,0-11.4,5.43,20.05,20.05,0,0,0-4.15,12.89h-3.52q0-10.44,2.93-16.83a19.31,19.31,0,0,1,8.31-9.32,26.24,26.24,0,0,1,12.72-2.93,22.08,22.08,0,0,1,11.14,2.66,18.07,18.07,0,0,1,7.13,7.51,25.12,25.12,0,0,1,2.5,11.66v35.15H694.89Z" transform="translate(-238.42 -407.21)"/><path class="cls-3" d="M585.71,632.22h.34l-12.11,0v38.24a1.59,1.59,0,0,0,3,.51l10.79-35.52a2.26,2.26,0,0,0-2.06-3.19" transform="translate(-238.42 -407.21)"/><path class="cls-3" d="M566.29,608.42l-23.18-1V592.48h71.14V607.4l-22.46,1L581.8,638H570.33a2.84,2.84,0,0,1-2.85-2.73Z" transform="translate(-238.42 -407.21)"/><path class="cls-3" d="M730.15,592.09h.1a6.07,6.07,0,0,1,6.07,6.07v73H724.08v-73a6.07,6.07,0,0,1,6.07-6.07m33.35,22.48h0a5.06,5.06,0,0,1,3.65,8.57l-31.78,33v-14.6l24.49-25.4a5,5,0,0,1,3.64-1.54M753.26,634.7,777,671.12H762.53l-18.32-29.07Z" transform="translate(-238.42 -407.21)"/><path class="cls-3" d="M793,614.57h.11a6.07,6.07,0,0,1,6.07,6.07v50.48H786.92V620.64a6.07,6.07,0,0,1,6.07-6.07m35.89,24.6q0-6.6-3.62-10.38t-10-3.79c-5,.08-9,1.85-11.88,5.33a19.74,19.74,0,0,0-4.31,13h-3.41q0-10.55,3-16.93a19.45,19.45,0,0,1,8.47-9.32A27.1,27.1,0,0,1,820,614.14a22.86,22.86,0,0,1,11.34,2.66,17.86,17.86,0,0,1,7.25,7.51,25.25,25.25,0,0,1,2.5,11.66v35.15H828.88Z" transform="translate(-238.42 -407.21)"/></g></svg>