<?xml version="1.0" encoding="UTF-8" standalone="no"?>
<svg
   id="Layer_1"
   data-name="Layer 1"
   viewBox="0 0 189.30987 266.42102"
   version="1.1"
   sodipodi:docname="short.svg"
   width="189.30988"
   height="266.42102"
   inkscape:version="1.2.1 (9c6d41e410, 2022-07-14)"
   xmlns:inkscape="http://www.inkscape.org/namespaces/inkscape"
   xmlns:sodipodi="http://sodipodi.sourceforge.net/DTD/sodipodi-0.dtd"
   xmlns="http://www.w3.org/2000/svg"
   xmlns:svg="http://www.w3.org/2000/svg">
  <sodipodi:namedview
     id="namedview258"
     pagecolor="#ffffff"
     bordercolor="#000000"
     borderopacity="0.25"
     inkscape:showpageshadow="2"
     inkscape:pageopacity="0.0"
     inkscape:pagecheckerboard="0"
     inkscape:deskcolor="#d1d1d1"
     showgrid="false"
     inkscape:zoom="1.1357042"
     inkscape:cx="81.007007"
     inkscape:cy="188.42934"
     inkscape:window-width="1920"
     inkscape:window-height="1009"
     inkscape:window-x="-8"
     inkscape:window-y="-8"
     inkscape:window-maximized="1"
     inkscape:current-layer="Layer_1" />
  <defs
     id="defs201">
    <style
       id="style196">.cls-1{fill:none;}.cls-2{clip-path:url(#clip-path);}.cls-3{fill:#1d377f;}.cls-4{fill:#ff7b00;}.cls-5{fill:#ffa25c;}.cls-6{fill:#fff;}.cls-7{fill:#ffd9bd;}</style>
    <clipPath
       id="clip-path"
       transform="translate(-238.42 -407.21)">
      <rect
         class="cls-1"
         width="1080"
         height="1080"
         id="rect198"
         x="0"
         y="0" />
    </clipPath>
  </defs>
  <g
     class="cls-2"
     clip-path="url(#clip-path)"
     id="g255"
     transform="translate(0,1.7610219)">
    <path
       class="cls-3"
       d="m 407,508.84 c 0,0 -42,9.86 -83.64,7.87 -13.6,-0.65 -48.92,-3 -64.73,-6.24 -8.12,-1.68 -14.78,-7.35 -15.9,-15.57 l -4.17,-30.54 a 9,9 0 0 1 10.82,-10.08 c 15.87,3.28 45.78,8 84.36,7.31 33.87,-0.6 69.25,-5.69 86.4,-8.48 a 6,6 0 0 1 6.46,8.15 z"
       transform="translate(-238.42,-407.21)"
       id="path554" />
    <path
       class="cls-3"
       d="m 360,565.25 h -8.25 l -9.42,26 H 313 l 6.1,75.46 a 5.1,5.1 0 0 0 9.73,1.63 L 366.6,575.49 A 7.24,7.24 0 0 0 360,565.25"
       transform="translate(-238.42,-407.21)"
       id="path551" />
    <path
       class="cls-3"
       d="M 336.91,584.83 H 293.5 a 9.66,9.66 0 0 1 -9.67,-9.45 l -1.58,-67.91 H 365 Z"
       transform="translate(-238.42,-407.21)"
       id="path548" />
    <path
       class="cls-3"
       d="m 376.27,407.21 h -65 a 21,21 0 1 0 0,41.94 h 65 a 21,21 0 1 0 0,-41.94 m -65,35 a 14,14 0 1 1 14,-14 14,14 0 0 1 -14,14 m 41.94,0 a 14,14 0 1 1 14,-14 14,14 0 0 1 -14,14"
       transform="translate(-238.42,-407.21)"
       id="path545" />
    <path
       class="cls-4"
       d="m 325.25,428.18 a 14,14 0 1 1 -14,-14 14,14 0 0 1 14,14"
       transform="translate(-238.42,-407.21)"
       id="path542" />
    <path
       class="cls-4"
       d="m 367.18,428.18 a 14,14 0 1 1 -14,-14 14,14 0 0 1 14,14"
       transform="translate(-238.42,-407.21)"
       id="path539" />
    <path
       id="path536"
       class="cls-4"
       style="fill:#ff7b00"
       d="m 55.6,102.91 20.63,-20.19 -8.76,25 z" />
    <path
       id="path533"
       class="cls-5"
       style="fill:#ffa25c"
       d="m 67.47,107.71 8.76,-25 20.64,20.2 z" />
    <path
       id="path530"
       class="cls-6"
       style="fill:#ffffff"
       d="m 76.23,123.11 -20.63,-20.2 11.87,4.8 z" />
    <path
       id="path527"
       class="cls-7"
       style="fill:#ffd9bd"
       d="m 96.87,102.91 -20.64,20.2 -8.76,-15.39 z" />
    <path
       id="path503"
       class="cls-6"
       style="fill:#ffffff"
       d="m 434.83,128.04 -20.63,-20.2 11.87,4.81 z" />
  </g>
</svg>
